<svg class="services-top" width="100%" height="300" xmlns="http://www.w3.org/2000/svg">
    <path id="svg_2" fill="#FFF" stroke="#000" stroke-width="0" d="m-19.87006,126.33922c0,0 2.16796,-1.48437 6.92379,-3.91356c4.75584,-2.42918 12.09956,-5.80319 22.45107,-9.58247c20.70303,-7.55856 53.43725,-16.7382 101.56202,-23.22255c48.12477,-6.48434 111.6401,-10.27339 193.90533,-7.05074c41.13262,1.61132 88.20271,5.91306 140.3802,12.50726c52.17748,6.59421 -86.4742,-15.61273 171.02458,26.26208c64.37469,10.4687 130.09704,0.19531 175.01626,-5.4736c44.91922,-5.66892 49.93384,-12.28022 191.44685,-45.34647c141.51301,-33.06625 221.34662,-61.99188 426.81438,-59.4919c102.73388,1.24999 203.44102,29.65927 398.99543,109.88821c195.55441,80.22895 668.78972,-44.38181 814.0537,-9.88704c-76.25064,69.23438 407.49874,281.32592 331.2481,350.5603c-168.91731,29.52009 85.02254,247.61162 -83.89478,277.13171c84.07062,348.27313 -2948.95065,-242.40222 -2928.39024,-287.84045"></path>
</svg>