<svg width="164" height="96" viewBox="0 0 164 96" xmlns="http://www.w3.org/2000/svg">
    <path d="M32.2393 61.488H14.4473L11.5033 70H2.09525L18.1593 25.264H28.5913L44.6553 70H35.1833L32.2393 61.488ZM29.8073 54.32L23.3433 35.632L16.8793 54.32H29.8073ZM70.6278 70.576C67.7264 70.576 65.1238 70.064 62.8198 69.04C60.5158 67.9733 58.6811 66.544 57.3158 64.752C55.9931 62.96 55.2678 60.976 55.1398 58.8H64.1638C64.3344 60.1653 64.9958 61.296 66.1478 62.192C67.3424 63.088 68.8144 63.536 70.5638 63.536C72.2704 63.536 73.5931 63.1947 74.5318 62.512C75.5131 61.8293 76.0038 60.9547 76.0038 59.888C76.0038 58.736 75.4064 57.8827 74.2118 57.328C73.0598 56.7307 71.2038 56.0907 68.6438 55.408C65.9984 54.768 63.8224 54.1067 62.1158 53.424C60.4518 52.7413 59.0011 51.696 57.7638 50.288C56.5691 48.88 55.9718 46.9813 55.9718 44.592C55.9718 42.6293 56.5264 40.8373 57.6358 39.216C58.7878 37.5947 60.4091 36.3147 62.4998 35.376C64.6331 34.4373 67.1291 33.968 69.9878 33.968C74.2118 33.968 77.5824 35.0347 80.0998 37.168C82.6171 39.2587 84.0038 42.096 84.2598 45.68H75.6838C75.5558 44.272 74.9584 43.1627 73.8918 42.352C72.8678 41.4987 71.4811 41.072 69.7318 41.072C68.1104 41.072 66.8518 41.3707 65.9558 41.968C65.1024 42.5653 64.6758 43.3973 64.6758 44.464C64.6758 45.6587 65.2731 46.576 66.4678 47.216C67.6624 47.8133 69.5184 48.432 72.0358 49.072C74.5958 49.712 76.7078 50.3733 78.3718 51.056C80.0358 51.7387 81.4651 52.8053 82.6598 54.256C83.8971 55.664 84.5371 57.5413 84.5798 59.888C84.5798 61.936 84.0038 63.7707 82.8518 65.392C81.7424 67.0133 80.1211 68.2933 77.9878 69.232C75.8971 70.128 73.4438 70.576 70.6278 70.576ZM119.327 70L107.295 54.896V70H98.3348V22.64H107.295V49.584L119.199 34.544H130.847L115.231 52.336L130.975 70H119.327ZM151.07 40.048C152.222 38.1707 153.715 36.6987 155.55 35.632C157.427 34.5653 159.56 34.032 161.95 34.032V43.44H159.582C156.766 43.44 154.632 44.1013 153.182 45.424C151.774 46.7467 151.07 49.0507 151.07 52.336V70H142.11V34.544H151.07V40.048Z" />
    <rect x="142" y="23" width="20" height="4" />
</svg>